<?xml version="1.0" encoding="UTF-8" standalone="no"?>
<!-- Created with Inkscape (http://www.inkscape.org/) -->

<svg xmlns:dc="http://purl.org/dc/elements/1.1/" xmlns:cc="http://creativecommons.org/ns#" xmlns:rdf="http://www.w3.org/1999/02/22-rdf-syntax-ns#" xmlns:svg="http://www.w3.org/2000/svg" xmlns="http://www.w3.org/2000/svg" xmlns:sodipodi="http://sodipodi.sourceforge.net/DTD/sodipodi-0.dtd" xmlns:inkscape="http://www.inkscape.org/namespaces/inkscape" width="1038.0197" height="447" id="svg2" version="1.1" inkscape:version="0.48.5 r10040" sodipodi:docname="NBA Horizontal Logo - Black.svg">
  <defs id="defs4" />
  <sodipodi:namedview id="base" pagecolor="#ffffff" bordercolor="#666666" borderopacity="1.0" inkscape:pageopacity="0.0" inkscape:pageshadow="2" inkscape:zoom="0.49497475" inkscape:cx="483.91824" inkscape:cy="48.217225" inkscape:document-units="px" inkscape:current-layer="layer1" showgrid="false" fit-margin-top="0" fit-margin-left="0" fit-margin-right="0" fit-margin-bottom="0" inkscape:window-width="1366" inkscape:window-height="706" inkscape:window-x="-8" inkscape:window-y="-8" inkscape:window-maximized="1" />
  <metadata id="metadata7">
    <rdf:RDF>
      <cc:Work rdf:about="">
        <dc:format>image/svg+xml</dc:format>
        <dc:type rdf:resource="http://purl.org/dc/dcmitype/StillImage" />
        <dc:title></dc:title>
      </cc:Work>
    </rdf:RDF>
  </metadata>
  <g inkscape:label="Layer 1" inkscape:groupmode="layer" id="layer1" transform="translate(141.35714,-394.57647)">
    <g id="g3058" transform="translate(-141.35714,394.57647)">
      <path style="fill:#ffffff" d="m 46,0 105,0 c 25.484,0 46,20.516 46,46 l 0,355 c 0,25.484 -20.516,46 -46,46 L 46,447 C 20.516,447 0,426.484 0,401 L 0,46 C 0,20.516 20.516,0 46,0 z" id="rect3032" inkscape:connector-curvature="0" />
      <path id="path3034" d="m 124.92,81.936 0.146,1.512 c 3.168,1.872 4.824,3.384 8.063,5.472 8.496,5.4 18.938,14.976 17.641,47.88 2.447,7.2 3.528,21.24 5.688,25.704 4.393,8.856 7.416,14.616 8.712,22.896 0,0 1.297,12.96 2.952,13.896 8.783,2.016 6.265,2.88 7.488,4.464 1.367,1.728 6.479,1.656 6.479,6.408 1.801,2.376 3.169,4.752 4.104,7.344 V 46.368 c 0,-19.584 -15.84,-35.424 -35.353,-35.424 h -33.769 c 5.4,1.944 8.496,4.248 10.297,7.848 4.318,0.36 9.433,10.08 1.439,24.552 3.527,2.448 0.791,6.048 -1.729,10.152 -0.792,1.296 -1.584,3.672 -3.96,3.528 -3.168,6.552 -6.841,12.744 -9.647,13.104 -0.791,1.008 -1.369,3.816 -0.145,5.112 4.107,1.872 9.073,4.32 11.594,6.696 z" inkscape:connector-curvature="0" style="fill:black" />
      <path id="path3036" d="m 156.456,435.599 -0.359,0.072 c 15.479,-9.432 5.903,-27.287 2.952,-37.799 l 0.575,-1.802 c 0.792,-1.44 -0.863,-4.823 -0.863,-4.823 -1.943,-1.584 -2.376,-10.367 -3.385,-14.399 -1.654,-6.552 2.952,-18 2.952,-21.888 0,-3.89 -2.952,-9.217 -8.279,-15.984 -1.297,-1.512 -5.185,-34.704 -8.641,-43.128 -4.824,-11.593 -6.265,-9.722 -12.023,-23.616 -4.393,-9.721 -0.937,-24.048 -10.872,-57.312 l 2.231,-2.088 c 0,0 -7.92,-28.944 -10.513,-36.864 -2.521,-7.92 -7.199,-8.424 -7.199,-8.424 l 0.287,-4.104 c 0.361,-1.224 9.648,-25.344 10.44,-26.136 0.071,-0.504 13.392,-9.648 13.607,-8.28 1.079,5.904 6.264,35.928 8.495,40.68 2.232,4.824 9.938,19.512 13.465,28.656 -13.752,3.384 -24.049,15.84 -24.049,30.601 0,17.424 14.113,31.607 31.537,31.607 13.318,0 24.84,-8.279 29.447,-19.943 l -0.072,160.057 c 0.003,17.71 -12.741,32.325 -29.733,34.917 z" inkscape:connector-curvature="0" style="fill:black" />
      <path id="path3038" d="m 105.983,10.944 c -11.52,4.464 -13.104,9.432 -13.535,25.416 -1.944,0.216 -5.977,-1.656 -4.608,8.064 0,0 0.72,6.48 3.312,5.4 -2.016,14.112 -0.414,17.644 -9.791,18.648 -2.016,0.216 -4.465,0.36 -7.488,0.504 l -0.936,1.296 c -12.816,1.224 -19.164,0.405 -27.433,11.304 -3.168,4.176 -6.552,10.08 -10.728,18.504 0,0 -3.816,9.432 -4.969,13.32 -3.672,7.704 -12.672,24.768 -15.336,35.712 -0.863,3.744 -2.52,4.896 -0.144,10.296 3.528,7.776 -2.304,9.792 17.712,9.216 v 4.608 c 0,0 -5.328,4.608 -6.48,7.344 -1.08,2.808 -4.176,16.56 -4.031,23.112 0.359,17.064 14.256,31.319 18.359,48.312 l 9.288,1.297 c 5.04,11.592 27.072,42.838 32.185,47.879 0.072,0.072 0.144,0.145 0.216,0.217 1.151,2.951 6.84,6.624 10.151,10.296 2.017,1.944 11.306,12.024 23.689,21.601 4.546,3.515 9.434,6.983 14.544,9.936 -0.144,-0.073 3.024,6.264 4.608,11.447 -6.336,5.111 5.976,14.473 9.72,29.953 0.216,2.086 -3.601,4.176 2.088,9.287 -0.36,23.398 -7.487,35.641 4.464,42.119 H 45.504 C 26.353,435.6 10.872,419.905 10.872,400.68 V 46.368 C 10.872,27 26.352,11.376 45.504,10.944 h 60.479 z" inkscape:connector-curvature="0" style="fill:black" />
      <path id="path3040" d="M 49.319,411.552 H 61.272 V 358.56 H 50.688 v 31.248 H 50.543 L 50.184,387.648 41.76,358.56 H 29.808 v 52.992 h 10.584 v -32.76 h 0.145 l 0.216,1.871 8.566,30.889 z" inkscape:connector-curvature="0" style="fill:#ffffff" />
      <path style="fill:#ffffff" d="m -75.96875,753.125 0,53 17.6875,0 c 10.872,0 14.1875,-6.85325 14.1875,-15.78125 0,-6.623 -2.1585,-11.07625 -8.0625,-12.15625 l 0,-0.0625 c 5.904,-2.014 6.6875,-6.91725 6.6875,-12.53125 0,-9.072 -4.30025,-12.46875 -13.15625,-12.46875 l -17.34375,0 z m 12.59375,9 3.8125,0 c 3.023,0 3.75,2.10925 3.75,5.78125 0,3.311 -0.3715,6.1875 -4.1875,6.1875 l -3.375,0 0,-11.96875 z m 0,20.59375 3.875,0 c 3.816,0 4.25,3.524 4.25,7.125 0,5.255 -0.42725,7.28125 -4.53125,7.28125 l -3.59375,0 0,-14.40625 z" transform="translate(141.35714,-394.57647)" id="path3042" inkscape:connector-curvature="0" />
      <path style="fill:#ffffff" d="m -34.0625,753.125 -9.75,53 12.125,0 1.28125,-11.59375 8.5,0 1.15625,11.59375 12.8125,0 -9.9375,-53 -16.1875,0 z m 7.96875,8 0.21875,0 0,1.3125 2.8125,23.75 -6.125,0 3.09375,-23.75 0,-1.3125 z" transform="translate(141.35714,-394.57647)" id="path3048" inkscape:connector-curvature="0" />
      <path style="fill:black;fill-opacity:1" inkscape:connector-curvature="0" d="m 385.24727,427.75171 h 92.77797 V 16.437284 H 395.87403 V 258.97915 H 394.7489 L 391.96254,242.21225 326.57909,16.437284 H 233.808 V 427.75171 h 82.15114 V 173.47472 h 1.1252 l 1.67816,14.52231 66.48477,239.75468 z" id="path3073" />
      <path id="path3075" d="m 509.97674,16.34871 0,411.37567 137.28737,0 c 84.38305,0 110.1199,-53.19383 110.1199,-122.48877 0,-51.40848 -16.75476,-85.97386 -62.58005,-94.3567 l 0,-0.48162 c 45.82529,-15.63239 51.90773,-53.69017 51.90773,-97.26582 0,-70.414053 -33.3771,-96.780022 -102.11762,-96.780022 l -134.61733,0 z m 97.75003,69.85624 29.59138,0 c 23.46371,0 29.10746,16.37355 29.10746,44.87307 0,25.69916 -2.88381,48.02502 -32.503,48.02502 l -26.19584,0 0,-92.89809 z m 0,159.84395 30.07871,0 c 29.6184,0 32.98636,27.35329 32.98636,55.30384 0,40.78631 -3.31664,56.5154 -35.17044,56.5154 l -27.89463,0 0,-111.81924 z" style="fill:black;fill-opacity:1" inkscape:connector-curvature="0" />
      <path id="path3077" d="m 835.24434,16.34871 -75.67708,411.37567 94.1115,0 9.94597,-89.98771 65.97531,0 8.97405,89.98771 99.44551,0 -77.13069,-411.37567 -125.64457,0 z m 61.85215,62.094422 1.69861,0 0,10.188868 21.83025,184.34156 -47.54056,0 24.0117,-184.34156 0,-10.188868 z" style="fill:black;fill-opacity:1" inkscape:connector-curvature="0" />
    </g>
  </g>
</svg>
